<?xml version="1.0" standalone="no"?><!DOCTYPE svg PUBLIC "-//W3C//DTD SVG 1.1//EN" "http://www.w3.org/Graphics/SVG/1.1/DTD/svg11.dtd"><svg t="1749628576511" class="icon" viewBox="0 0 1024 1024" version="1.1" xmlns="http://www.w3.org/2000/svg" p-id="1431" xmlns:xlink="http://www.w3.org/1999/xlink" width="16" height="16"><path d="M704 640v48c0 8.8-7.2 16-16 16h-32c-8.8 0-16-7.2-16-16v-191.888V464c0-8.8 7.2-16 16-16h96c8.8 0 16 7.2 16 16v32c0 8.8-7.2 16-16 16h-48v64h48c8.8 0 16 7.2 16 16v32c0 8.8-7.2 16-16 16h-48z m-160 0v48c0 8.8-7.2 16-16 16h-32c-8.8 0-16-7.2-16-16v-191.772V464c0-8.8 7.2-16 16-16h96c8.8 0 16 7.2 16 16v32c0 8.8-7.2 16-16 16h-48v64h48c8.8 0 16 7.2 16 16v32c0 8.8-7.2 16-16 16h-48z m-48-320c-8.8 0-16-7.2-16-16V80c0-8.8 7.2-16 16-16h32c8.8 0 16 7.2 16 16v224c0 8.8-7.2 16-16 16h-32z m176-202.34c0-11.656 12.036-19.336 22.672-14.568C850.88 173.136 960 330.016 960 512c0 249.308-204.704 451.708-454.86 447.948-237.724-3.576-432.96-195.096-440.884-432.716-6.288-188.448 104.548-352.192 265.132-424.16C340 98.308 352 106.04 352 117.668v35.248a15.88 15.88 0 0 1-8.8 14.28C215.872 229.788 128 360.8 128 512c0 216.784 180.572 392.188 399.208 383.704 199.248-7.736 360.732-169.196 368.496-368.44 6.14-157.62-83.324-295.4-214.932-360.076-5.412-2.66-8.772-8.24-8.772-14.272v-35.256zM352 448c52.8 0 96 43.2 96 96v64c0 52.8-43.2 96-96 96s-96-43.2-96-96v-64c0-52.8 43.2-96 96-96z m0 64c-17.344 0-32 14.656-32 32v64c0 17.344 14.656 32 32 32s32-14.656 32-32v-64c0-17.344-14.656-32-32-32z" fill="#999999" p-id="1432"></path></svg>