<?xml version="1.0" standalone="no"?><!DOCTYPE svg PUBLIC "-//W3C//DTD SVG 1.1//EN" "http://www.w3.org/Graphics/SVG/1.1/DTD/svg11.dtd"><svg t="1749617764274" class="icon" viewBox="0 0 1024 1024" version="1.1" xmlns="http://www.w3.org/2000/svg" p-id="1521" xmlns:xlink="http://www.w3.org/1999/xlink" width="16" height="16"><path d="M1022.348331 47.446148c-0.682649-28.261665-22.254355-46.147067-53.110086-45.464418-30.923996 0.682649-46.897981 19.523759-51.949583 47.785424-2.662331 14.676952-1.774887 30.036552-1.911416 45.054829-0.27306 25.735864-0.13653 51.471728-0.13653 77.139327l-12.014621 5.461192c-13.516449-12.970329-26.759838-26.145454-40.549346-38.842724C738.707706 24.304349 591.596864-18.224678 426.87368 7.033332 194.226929 42.73587 21.858077 236.403368 1.651669 478.061085c-18.97764 226.639441 127.314023 445.769743 346.92218 519.427562 222.202223 74.545262 469.389396-12.287681 594.314148-208.890569 8.055257-12.629005 16.383574-25.599334 21.298646-39.593637 9.557085-27.169427 4.778542-52.495702-22.117825-66.967859-25.872394-13.994303-50.37949-8.396582-68.742746 15.3596-9.21576 11.878091-16.178779 25.39454-24.780156 37.750486-77.480652 111.886158-183.837354 172.778441-320.025812 179.400135-182.267261 8.874436-349.516246-109.292092-402.626332-283.57236A405.220398 405.220398 0 0 1 309.321536 162.47249c157.82843-91.952809 360.438629-65.534296 488.093977 64.100734 9.420555 9.48882 15.700925 21.981295 30.855731 43.757795-49.833371 0-88.266505-2.047947-126.29005 0.682649-35.156419 2.389271-53.792735 23.278328-53.519675 52.632232 0.27306 28.60299 20.206408 52.222642 54.065794 53.110086 88.266505 2.116212 176.66954 1.365298 265.00431 0.409589 29.080844-0.341324 53.246616-16.929693 54.065794-45.737477 2.93539-94.546875 3.140185-189.36681 0.750914-283.98195z" fill="#515151" p-id="1522"></path></svg>